<?xml version="1.0" encoding="iso-8859-1"?>
<!-- Generator: Adobe Illustrator 19.0.0, SVG Export Plug-In . SVG Version: 6.00 Build 0)  -->
<svg version="1.1" id="Capa_1" xmlns="http://www.w3.org/2000/svg" xmlns:xlink="http://www.w3.org/1999/xlink" x="0px" y="0px"
	 viewBox="0 0 512 512" style="enable-background:new 0 0 512 512;" xml:space="preserve">
<path style="fill:#303C42;" d="M397.729,85.781L192,24.063V10.667C192,4.771,187.229,0,181.333,0
	c-5.896,0-10.667,4.771-10.667,10.667v458.81c-63.871,1.431-64,15.652-64,21.19c0,5.833,0,21.333,74.667,21.333
	S256,496.5,256,490.667c0-5.538-0.129-19.759-64-21.19V167.938l205.729-61.719c4.521-1.354,7.604-5.51,7.604-10.219
	C405.333,91.292,402.25,87.135,397.729,85.781z"/>
<polygon style="fill:#E53935;" points="192,145.663 192,46.337 357.542,96 "/>
<polygon style="opacity:0.1;enable-background:new    ;" points="192,145.663 192,96 357.542,96 "/>
<linearGradient id="SVGID_1_" gradientUnits="userSpaceOnUse" x1="-38.6061" y1="643.4094" x2="-34.7435" y2="639.5468" gradientTransform="matrix(21.3333 0 0 -21.3333 996.3334 13791.667)">
	<stop  offset="0" style="stop-color:#000000;stop-opacity:0.1"/>
	<stop  offset="1" style="stop-color:#000000;stop-opacity:0"/>
</linearGradient>
<polygon style="fill:url(#SVGID_1_);" points="223.822,55.884 192,46.337 192,145.663 285.539,117.602 "/>
<linearGradient id="SVGID_2_" gradientUnits="userSpaceOnUse" x1="-43.122" y1="636.6204" x2="-31.1159" y2="631.0213" gradientTransform="matrix(21.3333 0 0 -21.3333 996.3334 13791.667)">
	<stop  offset="0" style="stop-color:#FFFFFF;stop-opacity:0.2"/>
	<stop  offset="1" style="stop-color:#FFFFFF;stop-opacity:0"/>
</linearGradient>
<path style="fill:url(#SVGID_2_);" d="M397.729,85.781L192,24.063V10.667C192,4.771,187.229,0,181.333,0
	c-5.896,0-10.667,4.771-10.667,10.667v458.81c-63.871,1.431-64,15.652-64,21.19c0,5.833,0,21.333,74.667,21.333
	S256,496.5,256,490.667c0-5.538-0.129-19.759-64-21.19V167.938l205.729-61.719c4.521-1.354,7.604-5.51,7.604-10.219
	C405.333,91.292,402.25,87.135,397.729,85.781z"/>
<g>
</g>
<g>
</g>
<g>
</g>
<g>
</g>
<g>
</g>
<g>
</g>
<g>
</g>
<g>
</g>
<g>
</g>
<g>
</g>
<g>
</g>
<g>
</g>
<g>
</g>
<g>
</g>
<g>
</g>
</svg>
