<?xml version="1.0" encoding="iso-8859-1"?>
<!-- Generator: Adobe Illustrator 19.0.0, SVG Export Plug-In . SVG Version: 6.00 Build 0)  -->
<svg version="1.1" id="Capa_1" xmlns="http://www.w3.org/2000/svg" xmlns:xlink="http://www.w3.org/1999/xlink" x="0px" y="0px"
	 viewBox="0 0 512 512" style="enable-background:new 0 0 512 512;" xml:space="preserve">
<circle style="fill:#DFE1DF;" cx="256" cy="256" r="234.667"/>
<path style="fill:#1E88E5;" d="M256,0C114.844,0,0,114.844,0,256s114.844,256,256,256s256-114.844,256-256S397.156,0,256,0z
	 M256,469.333c-117.633,0-213.333-95.701-213.333-213.333S138.367,42.667,256,42.667S469.333,138.367,469.333,256
	S373.633,469.333,256,469.333z"/>
<path style="fill:#303C42;" d="M256,85.333c-58.813,0-106.667,47.854-106.667,106.667v10.667c0,5.896,4.771,10.667,10.667,10.667
	h42.667c5.896,0,10.667-4.771,10.667-10.667V192c0-23.521,19.146-42.667,42.667-42.667s42.667,19.146,42.667,42.667
	S279.521,234.667,256,234.667s-42.667,19.146-42.667,42.667v53.333c0,5.896,4.771,10.667,10.667,10.667h42.667
	c5.896,0,10.667-4.771,10.667-10.667v-34.125c49.271-9.979,85.333-53.354,85.333-104.542C362.667,133.188,314.813,85.333,256,85.333
	z"/>
<path style="fill:#1E88E5;" d="M265.479,276.813c-5.396,0.604-9.479,5.167-9.479,10.604V320h-21.333v-42.667
	c0-11.771,9.563-21.333,21.333-21.333c35.292,0,64-28.708,64-64s-28.708-64-64-64s-64,28.708-64,64h-21.333
	c0-47.063,38.271-85.333,85.333-85.333s85.333,38.271,85.333,85.333C341.333,235.542,308.729,272,265.479,276.813z"/>
<circle style="fill:#303C42;" cx="245.333" cy="394.667" r="32"/>
<circle style="fill:#1E88E5;" cx="245.333" cy="394.667" r="10.667"/>
<linearGradient id="SVGID_1_" gradientUnits="userSpaceOnUse" x1="-45.5784" y1="639.555" x2="-23.8278" y2="629.4138" gradientTransform="matrix(21.3333 0 0 -21.3333 996.3334 13791.667)">
	<stop  offset="0" style="stop-color:#FFFFFF;stop-opacity:0.2"/>
	<stop  offset="1" style="stop-color:#FFFFFF;stop-opacity:0"/>
</linearGradient>
<path style="fill:url(#SVGID_1_);" d="M256,0C114.844,0,0,114.844,0,256s114.844,256,256,256s256-114.844,256-256S397.156,0,256,0z"
	/>
<g>
</g>
<g>
</g>
<g>
</g>
<g>
</g>
<g>
</g>
<g>
</g>
<g>
</g>
<g>
</g>
<g>
</g>
<g>
</g>
<g>
</g>
<g>
</g>
<g>
</g>
<g>
</g>
<g>
</g>
</svg>
