<svg height="512" viewBox="0 0 16 16" width="512" xmlns="http://www.w3.org/2000/svg"><path d="m5.41421 1.17157c1.17157 1.17157 1.17157 3.07107 0 4.24264s-3.07107 1.17157-4.24264 0c-1.17157-1.17157-1.17157-3.07107 0-4.24264 1.17157-1.17157 3.07107-1.17157 4.24264 0" transform="translate(4.707 4.707)"/><path d="m16 7h-1.07983c-.440613-3.05908-2.86108-5.47955-5.92017-5.92017v-1.07983h-2v1.07983c-3.05908.440613-5.47955 2.86108-5.92017 5.92017h-1.07983v2h1.07983c.440613 3.05908 2.86108 5.47955 5.92017 5.92017v1.07983h2v-1.07983c3.05908-.440613 5.47955-2.86108 5.92017-5.92017h1.07983zm-8 6c-2.75684 0-5-2.24316-5-5s2.24316-5 5-5 5 2.24316 5 5-2.24316 5-5 5z"/></svg>