<?xml version="1.0" encoding="iso-8859-1"?>
<!-- Generator: Adobe Illustrator 19.0.0, SVG Export Plug-In . SVG Version: 6.00 Build 0)  -->
<svg version="1.1" id="Layer_1" xmlns="http://www.w3.org/2000/svg" xmlns:xlink="http://www.w3.org/1999/xlink" x="0px" y="0px"
	 viewBox="0 0 511.995 511.995" style="enable-background:new 0 0 511.995 511.995;" xml:space="preserve">
<circle style="fill:#E84F4F;" cx="255.997" cy="255.997" r="255.997"/>
<path style="fill:#D14747;" d="M504.661,317.119v0.115v0.057v0.115v0.115v0.057v0.115v0.057v0.115v0.115
	c-0.401,1.548-0.802,3.096-1.204,4.644l0,0c-5.906,22.074-14.735,43.001-25.973,62.265l0,0
	c-26.145,44.836-65.533,80.957-112.777,103.088l0,0c-13.76,6.422-28.151,11.696-43.059,15.595l0,0
	c-1.204,0.344-2.408,0.63-3.612,0.918h-0.057l-0.229,0.057h-0.057h-0.057h-0.057h-0.057h-0.057h-0.057h-0.057h-0.057h-0.057h-0.057
	h-0.057L167.704,354.558l2.695-2.695l-84.855-84.855l185.191-63.183l-1.376-115.816l82.505,82.505l3.44-3.44l5.906,5.906
	l143.968,143.968L504.661,317.119z"/>
<circle style="fill:#72BFF2;" cx="255.997" cy="255.997" r="131.411"/>
<path style="fill:#F7F7F8;" d="M255.999,123.213c73.331,0,132.788,59.457,132.788,132.788s-59.457,132.788-132.788,132.788
	S123.212,329.332,123.212,256S182.668,123.213,255.999,123.213z M255.999,134.794c66.967,0,121.264,54.296,121.264,121.264
	S322.967,377.321,256,377.321s-121.263-54.296-121.263-121.264S189.033,134.794,255.999,134.794z"/>
<path style="fill:#E6E6E6;" d="M255.999,123.213c73.331,0,132.788,59.457,132.788,132.788s-59.457,132.788-132.788,132.788v-11.581
	c66.967,0,121.264-54.296,121.264-121.264S322.967,134.68,255.999,134.68v-11.582L255.999,123.213L255.999,123.213z"/>
<g>
	<path style="fill:#FFD630;" d="M165.984,242.24H92.939c-7.569,0-13.76,6.192-13.76,13.76l0,0c0,7.569,6.192,13.76,13.76,13.76
		h73.045c7.569,0,13.76-6.192,13.76-13.76l0,0C179.745,248.432,173.553,242.24,165.984,242.24z M419.06,242.24h-73.045
		c-7.569,0-13.76,6.192-13.76,13.76l0,0c0,7.569,6.192,13.76,13.76,13.76h73.045c7.569,0,13.76-6.192,13.76-13.76l0,0
		C432.82,248.432,426.628,242.24,419.06,242.24z"/>
	<path style="fill:#FFD630;" d="M242.24,92.94v73.045c0,7.569,6.192,13.76,13.76,13.76l0,0c7.569,0,13.76-6.192,13.76-13.76V92.94
		c0-7.569-6.192-13.76-13.76-13.76l0,0C248.432,79.18,242.24,85.372,242.24,92.94z M242.24,346.016v73.045
		c0,7.569,6.192,13.76,13.76,13.76l0,0c7.569,0,13.76-6.192,13.76-13.76v-73.045c0-7.569-6.192-13.76-13.76-13.76l0,0
		C248.432,332.255,242.24,338.447,242.24,346.016z"/>
</g>
<circle style="fill:#E63E3E;" cx="255.997" cy="255.997" r="61.578"/>
<circle style="fill:#F7F7F8;" cx="255.997" cy="255.997" r="41.105"/>
<circle style="fill:#E63E3E;" cx="255.997" cy="255.997" r="21.386"/>
<g>
</g>
<g>
</g>
<g>
</g>
<g>
</g>
<g>
</g>
<g>
</g>
<g>
</g>
<g>
</g>
<g>
</g>
<g>
</g>
<g>
</g>
<g>
</g>
<g>
</g>
<g>
</g>
<g>
</g>
</svg>
